  <svg fill="none" xmlns="http://www.w3.org/2000/svg">

  <!-- Socials icons start -->
  <g id="facebook">
        <g clip-path="url(#clip0_1_56)">
      <path
        d="M8.16671 7.87484H9.62504L10.2084 5.5415H8.16671V4.37484C8.16671 3.774 8.16671 3.20817 9.33337 3.20817H10.2084V1.24817C10.0182 1.22309 9.30012 1.1665 8.54179 1.1665C6.95804 1.1665 5.83337 2.13309 5.83337 3.90817V5.5415H4.08337V7.87484H5.83337V12.8332H8.16671V7.87484Z"
        fill="#2B2B2B" />
    </g>
    <defs>
      <clipPath id="clip0_1_56">
        <rect width="14" height="14" fill="white" />
      </clipPath>
    </defs>
  </g>

  <g id="instagram">
        <g clip-path="url(#clip0_1_63)">
      <path
        d="M6.99996 1.1665C8.58488 1.1665 8.78263 1.17234 9.40446 1.2015C10.0257 1.23067 10.4486 1.32809 10.8208 1.47275C11.2058 1.62092 11.5301 1.82159 11.8545 2.14534C12.1511 2.43694 12.3806 2.78968 12.527 3.179C12.6711 3.55059 12.7691 3.97409 12.7983 4.59534C12.8257 5.21717 12.8333 5.41492 12.8333 6.99984C12.8333 8.58475 12.8275 8.7825 12.7983 9.40434C12.7691 10.0256 12.6711 10.4485 12.527 10.8207C12.381 11.2102 12.1514 11.563 11.8545 11.8543C11.5628 12.1509 11.2101 12.3804 10.8208 12.5269C10.4492 12.671 10.0257 12.769 9.40446 12.7982C8.78263 12.8256 8.58488 12.8332 6.99996 12.8332C5.41504 12.8332 5.21729 12.8273 4.59546 12.7982C3.97421 12.769 3.55129 12.671 3.17913 12.5269C2.78965 12.3808 2.43685 12.1512 2.14546 11.8543C1.84878 11.5628 1.61925 11.21 1.47288 10.8207C1.32821 10.4491 1.23079 10.0256 1.20163 9.40434C1.17421 8.7825 1.16663 8.58475 1.16663 6.99984C1.16663 5.41492 1.17246 5.21717 1.20163 4.59534C1.23079 3.9735 1.32821 3.55117 1.47288 3.179C1.61885 2.78944 1.84843 2.43661 2.14546 2.14534C2.43693 1.84856 2.78971 1.61901 3.17913 1.47275C3.55129 1.32809 3.97363 1.23067 4.59546 1.2015C5.21729 1.17409 5.41504 1.1665 6.99996 1.1665ZM6.99996 4.08317C6.22641 4.08317 5.48455 4.39046 4.93756 4.93744C4.39058 5.48442 4.08329 6.22629 4.08329 6.99984C4.08329 7.77339 4.39058 8.51525 4.93756 9.06223C5.48455 9.60921 6.22641 9.9165 6.99996 9.9165C7.77351 9.9165 8.51537 9.60921 9.06235 9.06223C9.60934 8.51525 9.91663 7.77339 9.91663 6.99984C9.91663 6.22629 9.60934 5.48442 9.06235 4.93744C8.51537 4.39046 7.77351 4.08317 6.99996 4.08317ZM10.7916 3.93734C10.7916 3.74395 10.7148 3.55848 10.5781 3.42174C10.4413 3.28499 10.2558 3.20817 10.0625 3.20817C9.86907 3.20817 9.68361 3.28499 9.54686 3.42174C9.41012 3.55848 9.33329 3.74395 9.33329 3.93734C9.33329 4.13072 9.41012 4.31619 9.54686 4.45294C9.68361 4.58968 9.86907 4.6665 10.0625 4.6665C10.2558 4.6665 10.4413 4.58968 10.5781 4.45294C10.7148 4.31619 10.7916 4.13072 10.7916 3.93734ZM6.99996 5.24984C7.46409 5.24984 7.90921 5.43421 8.2374 5.7624C8.56559 6.09059 8.74996 6.53571 8.74996 6.99984C8.74996 7.46397 8.56559 7.90909 8.2374 8.23727C7.90921 8.56546 7.46409 8.74984 6.99996 8.74984C6.53583 8.74984 6.09071 8.56546 5.76252 8.23727C5.43433 7.90909 5.24996 7.46397 5.24996 6.99984C5.24996 6.53571 5.43433 6.09059 5.76252 5.7624C6.09071 5.43421 6.53583 5.24984 6.99996 5.24984Z"
        fill="#2B2B2B" />
    </g>
    <defs>
      <clipPath id="clip0_1_63">
        <rect width="14" height="14" fill="white" />
      </clipPath>
    </defs>
  </g>

  <g id="twitter">
      <g clip-path="url(#clip0_1_70)">
      <path
        d="M12.9278 3.29953C12.4825 3.49652 12.0102 3.62589 11.5266 3.68337C12.0363 3.37854 12.4178 2.89879 12.6 2.33353C12.1216 2.6182 11.5972 2.8177 11.0506 2.92562C10.6835 2.53279 10.1968 2.27226 9.66636 2.18454C9.13587 2.09682 8.59127 2.18682 8.11721 2.44055C7.64315 2.69428 7.2662 3.09752 7.04495 3.58758C6.82371 4.07764 6.77057 4.62707 6.8938 5.15045C5.92378 5.10183 4.97483 4.84976 4.10855 4.41059C3.24228 3.97142 2.47804 3.35498 1.86547 2.60128C1.64864 2.97371 1.53469 3.39708 1.5353 3.82803C1.5353 4.67387 1.9658 5.42112 2.6203 5.85862C2.23298 5.84642 1.85417 5.74182 1.51547 5.55354V5.58387C1.51559 6.14719 1.71052 6.69314 2.06721 7.12915C2.42391 7.56516 2.92042 7.8644 3.47255 7.97612C3.113 8.07356 2.73598 8.08792 2.37005 8.01812C2.52573 8.503 2.82914 8.92707 3.23782 9.23093C3.64649 9.5348 4.13996 9.70325 4.64914 9.7127C4.14308 10.1101 3.56366 10.4039 2.94398 10.5773C2.32431 10.7507 1.67654 10.8002 1.03772 10.723C2.15288 11.4402 3.45103 11.8209 4.77689 11.8197C9.26447 11.8197 11.7186 8.10212 11.7186 4.87804C11.7186 4.77304 11.7156 4.66687 11.711 4.56303C12.1886 4.2178 12.6009 3.79013 12.9284 3.30012L12.9278 3.29953Z"
        fill="#2B2B2B" />
    </g>
    <defs>
      <clipPath id="clip0_1_70">
        <rect width="14" height="14" fill="white" />
      </clipPath>
    </defs>
  </g>

  <g id="linkeding">
      <g clip-path="url(#clip0_1_77)">
      <path
        d="M4.0483 2.91676C4.04814 3.22618 3.92508 3.52287 3.70618 3.74155C3.48728 3.96023 3.19047 4.083 2.88105 4.08285C2.57163 4.08269 2.27495 3.95963 2.05626 3.74072C1.83758 3.52182 1.71481 3.22501 1.71497 2.9156C1.71512 2.60618 1.83819 2.30949 2.05709 2.09081C2.27599 1.87213 2.5728 1.74936 2.88222 1.74951C3.19164 1.74967 3.48832 1.87273 3.707 2.09163C3.92569 2.31053 4.04845 2.60734 4.0483 2.91676ZM4.0833 4.94676H1.74997V12.2501H4.0833V4.94676ZM7.76997 4.94676H5.4483V12.2501H7.74663V8.4176C7.74663 6.2826 10.5291 6.08426 10.5291 8.4176V12.2501H12.8333V7.62426C12.8333 4.0251 8.71497 4.15926 7.74663 5.92676L7.76997 4.94676Z"
        fill="#2B2B2B" />
    </g>
    <defs>
      <clipPath id="clip0_1_77">
        <rect width="14" height="14" fill="white" />
      </clipPath>
    </defs>
  </g>

  <g id="youtube">
      <g clip-path="url(#clip0_1_84)">
      <path
        d="M12.5667 3.79066C12.8333 4.83016 12.8333 7.00016 12.8333 7.00016C12.8333 7.00016 12.8333 9.17016 12.5667 10.2097C12.4185 10.7842 11.9851 11.2363 11.4362 11.3892C10.4393 11.6668 6.99996 11.6668 6.99996 11.6668C6.99996 11.6668 3.56238 11.6668 2.56371 11.3892C2.01246 11.234 1.57963 10.7825 1.43321 10.2097C1.16663 9.17016 1.16663 7.00016 1.16663 7.00016C1.16663 7.00016 1.16663 4.83016 1.43321 3.79066C1.58138 3.21608 2.01479 2.764 2.56371 2.61116C3.56238 2.3335 6.99996 2.3335 6.99996 2.3335C6.99996 2.3335 10.4393 2.3335 11.4362 2.61116C11.9875 2.76633 12.4203 3.21783 12.5667 3.79066ZM5.83329 9.04183L9.33329 7.00016L5.83329 4.9585V9.04183Z"
        fill="#2B2B2B" />
    </g>
    <defs>
      <clipPath id="clip0_1_84">
        <rect width="14" height="14" fill="white" />
      </clipPath>
    </defs>
  </g>

  <g id="dribbble">
  <svg width="14" height="14" viewBox="0 0 14 14" fill="none" xmlns="http://www.w3.org/2000/svg">
<g clip-path="url(#clip0_1_91)">
<path d="M11.6602 6.75017C11.6124 5.83195 11.293 4.94861 10.7426 4.21209C10.5749 4.3927 10.3957 4.56223 10.206 4.71959C9.62317 5.20366 8.97191 5.59878 8.27338 5.89209C8.37079 6.09625 8.46004 6.294 8.53879 6.48067V6.48242C8.56101 6.53458 8.58241 6.58709 8.60296 6.63992C9.48613 6.54075 10.4171 6.57692 11.3195 6.69884C11.4397 6.71517 11.5529 6.73267 11.6602 6.75017ZM6.18563 2.40434C6.75411 3.20535 7.27833 4.03688 7.75596 4.89517C8.46938 4.614 9.05913 4.25934 9.53396 3.86442C9.69878 3.72858 9.85394 3.58142 9.99829 3.424C9.15886 2.71801 8.09681 2.33161 6.99996 2.33317C6.72698 2.33298 6.4545 2.3566 6.18563 2.40375V2.40434ZM2.48088 5.83142C2.87826 5.82139 3.27517 5.79746 3.67088 5.75967C4.62733 5.67412 5.57562 5.5138 6.50704 5.28017C6.02026 4.43446 5.4947 3.61167 4.93204 2.81442C4.33105 3.11215 3.80111 3.53566 3.37819 4.05621C2.95526 4.57677 2.64924 5.18219 2.48088 5.83142ZM3.37338 9.93692C3.59971 9.60617 3.89721 9.234 4.29213 8.82917C5.14029 7.96 6.14129 7.28334 7.29979 6.91L7.33596 6.8995C7.23971 6.68717 7.14929 6.49759 7.05829 6.31909C5.98729 6.63117 4.85913 6.826 3.73504 6.92692C3.18671 6.9765 2.69496 6.99809 2.33329 7.00159C2.33226 8.0706 2.6998 9.10729 3.37396 9.93692H3.37338ZM8.75288 11.3253C8.52792 10.1908 8.20951 9.07694 7.80088 7.995C6.63304 8.41909 5.70263 9.03917 4.98338 9.77884C4.69311 10.0719 4.43552 10.3956 4.21513 10.7443C5.01943 11.3444 5.99644 11.6679 6.99996 11.6665C7.60074 11.6674 8.196 11.5519 8.75288 11.3264V11.3253ZM9.84546 10.6982C10.7562 9.99803 11.3766 8.9865 11.5879 7.85734C11.3895 7.80775 11.1381 7.75817 10.8616 7.71967C10.2469 7.63115 9.62308 7.62467 9.00663 7.70042C9.35374 8.67974 9.634 9.68148 9.84546 10.6988V10.6982ZM6.99996 12.8332C3.77821 12.8332 1.16663 10.2216 1.16663 6.99984C1.16663 3.77809 3.77821 1.1665 6.99996 1.1665C10.2217 1.1665 12.8333 3.77809 12.8333 6.99984C12.8333 10.2216 10.2217 12.8332 6.99996 12.8332Z" fill="#2B2B2B"/>
</g>
<defs>
<clipPath id="clip0_1_91">
<rect width="14" height="14" fill="white"/>
</clipPath>
</defs>
</svg>

  </g>


  <!-- Socials icons end -->


  <g id="ExtraSkillsIcon">
    <rect x="0.5" y="0.5" width="9" height="9" stroke="#FFB400"/>
    <rect x="5.5" y="5.5" width="9" height="9" stroke="#FFB400"/>
    <rect x="0.5" y="0.5" width="9" height="9" stroke="#FFB400"/>
    <rect x="5.5" y="5.5" width="9" height="9" stroke="#FFB400"/>
  </g>
  </svg>
